<svg width="142" height="50" viewBox="0 0 142 50" fill="none" xmlns="http://www.w3.org/2000/svg">
<g clip-path="url(#clip0_166_552)">
<path d="M14.7823 11.2118C11.9115 14.3685 9.12409 17.5847 6.5511 21.0392C5.41947 22.5878 4.16871 24.315 3.63267 26.0422C3.51355 26.5783 3.63267 26.34 3.39443 26.1018C3.33487 26.0422 3.21575 25.9231 3.15619 25.9231C4.1745 25.8866 5.18017 25.6855 6.13419 25.3275C14.1152 22.29 21.5602 17.7634 29.1243 13.7729C34.306 11.0331 39.309 8.17427 44.9076 6.2088C46.5158 5.73232 49.0768 4.83892 50.1489 6.74484C50.3583 7.27544 50.3999 7.85753 50.268 8.41251C49.9104 9.55394 49.3887 10.6373 48.7195 11.6287C47.1114 14.1303 45.3246 16.3935 43.5973 18.7164C42.7039 20.0267 36.0928 28.1268 39.9642 28.1864C41.9296 28.1864 44.1334 27.293 46.1584 26.8761C46.9922 26.7569 47.7665 26.5187 48.6599 26.9952C52.71 29.4371 31.6854 47.3051 29.1243 49.8066C33.2935 45.8161 37.4627 41.766 41.3936 37.5373C43.3698 35.4457 45.2194 33.238 46.9327 30.9261C47.5512 30.1252 48.0157 29.2164 48.3025 28.2459C48.6003 26.8165 45.0268 28.2459 44.3716 28.4246C42.4657 28.9011 38.7134 30.5688 37.7009 27.9481C36.9862 25.0297 40.8576 20.2649 42.4061 17.823C44.0738 15.4406 45.801 13.1177 47.2305 10.7353C47.7665 9.84195 48.5408 8.47207 48.4812 7.69779C47.5878 7.51911 46.5753 7.93603 45.6224 8.23383C42.9841 9.27452 40.4175 10.4882 37.9391 11.867C30.3155 15.9766 22.9896 20.5627 15.3064 24.7319C11.6733 26.5783 7.92098 28.9011 3.63267 29.4967C2.20324 29.6754 0.356881 28.8415 0.0590822 27.1739C-0.238717 25.5062 0.476001 24.1959 1.0716 22.9451C1.78175 21.5857 2.57749 20.2727 3.45399 19.0142C4.28783 17.7634 5.18123 16.5722 6.07463 15.4406C7.86142 13.1177 9.70778 10.8545 11.6137 8.65075C11.7746 8.42302 11.9807 8.23076 12.2189 8.0859C12.4572 7.94103 12.7227 7.84663 12.999 7.80856C13.2752 7.77048 13.5564 7.78954 13.825 7.86454C14.0936 7.93955 14.3439 8.06891 14.5605 8.24461C14.777 8.42031 14.9552 8.63861 15.084 8.88598C15.2127 9.13335 15.2893 9.40452 15.309 9.68269C15.3286 9.96087 15.291 10.2401 15.1983 10.5032C15.1057 10.7662 14.96 11.0074 14.7704 11.2118H14.7823Z" fill="white"/>
<path d="M15.8363 6.67334L12.8583 8.2219C12.6326 8.33939 12.4391 8.51053 12.2949 8.72028C12.1508 8.93002 12.0603 9.17196 12.0315 9.42484C12.0027 9.67772 12.0364 9.9338 12.1297 10.1706C12.223 10.4074 12.373 10.6177 12.5665 10.783C12.7612 10.9474 12.9955 11.0582 13.2462 11.1044C13.4969 11.1507 13.7553 11.1307 13.9958 11.0465C14.2364 10.9623 14.4509 10.8167 14.618 10.6243C14.7852 10.4319 14.8992 10.1991 14.9489 9.94913L15.8363 6.67334Z" fill="black" stroke="white" stroke-width="1.05421" stroke-miterlimit="10"/>
<path d="M20.9771 4.1837C20.4762 3.94097 19.9255 3.8186 19.369 3.82634C19.0043 3.82752 18.6422 3.88787 18.2969 4.00502C18.7011 3.17073 18.7858 2.21733 18.5351 1.32483C19.036 1.56756 19.5867 1.68993 20.1432 1.68219C20.5079 1.68101 20.87 1.62066 21.2153 1.50351C21.0297 1.92019 20.9053 2.36153 20.846 2.81382C20.7979 3.27462 20.8424 3.74039 20.9771 4.1837Z" fill="black"/>
<path d="M18.952 1.80141C19.3372 1.92324 19.7393 1.98354 20.1432 1.98009C20.3436 1.98705 20.5439 1.96702 20.7388 1.92053L20.5602 2.81393V3.70733C20.175 3.5855 19.773 3.5252 19.369 3.52865C19.1687 3.52169 18.9683 3.54172 18.7734 3.58821C19.0084 3.02341 19.0706 2.40157 18.952 1.80141ZM17.6417 0.193298C18.2083 0.869859 18.4869 1.74159 18.4179 2.62131C18.3488 3.50104 17.9376 4.31863 17.2725 4.89852C17.8667 4.38386 18.6307 4.10796 19.4166 4.12425C19.8956 4.12592 20.3684 4.23359 20.8008 4.43954C21.2333 4.64549 21.6149 4.94461 21.9181 5.31544C21.3502 4.64037 21.0695 3.76956 21.1363 2.88988C21.2031 2.0102 21.6121 1.19177 22.2755 0.610217C21.6844 1.12211 20.9251 1.39782 20.1432 1.38449C19.6642 1.38282 19.1915 1.27515 18.759 1.0692C18.3265 0.863249 17.945 0.564129 17.6417 0.193298Z" fill="white"/>
</g>
<path d="M59.1196 19L66.7036 0.927999H66.8476L74.4076 19H71.7436L66.0796 4.576L67.7356 3.496L61.3996 19H59.1196ZM63.5596 12.424H70.0156L70.7836 14.44H62.8876L63.5596 12.424ZM77.1237 19V0.423999H79.3557V19H77.1237ZM81.7557 12.4L86.3157 19H83.6997L80.2677 13.648L81.7557 12.4ZM78.6597 15.832L78.4437 13.696L84.4677 8.848L85.8357 10.024L78.6597 15.832ZM93.0642 19.24C92.1362 19.24 91.2882 19.04 90.5202 18.64C89.7682 18.24 89.1682 17.656 88.7202 16.888C88.2882 16.104 88.0722 15.152 88.0722 14.032C88.0722 12.928 88.3042 11.976 88.7682 11.176C89.2322 10.36 89.8482 9.736 90.6162 9.304C91.4002 8.872 92.2562 8.656 93.1842 8.656C94.1122 8.656 94.8962 8.872 95.5362 9.304C96.1762 9.72 96.6642 10.216 97.0002 10.792L96.8562 11.176L97.0722 9.064H99.1362V19H96.9042V16.408L97.1442 16.984C97.0802 17.144 96.9362 17.352 96.7122 17.608C96.5042 17.848 96.2162 18.096 95.8482 18.352C95.4962 18.608 95.0882 18.824 94.6242 19C94.1602 19.16 93.6402 19.24 93.0642 19.24ZM93.6642 17.392C94.2242 17.392 94.7282 17.288 95.1762 17.08C95.6242 16.872 95.9922 16.584 96.2802 16.216C96.5842 15.832 96.7922 15.376 96.9042 14.848V12.904C96.7762 12.424 96.5522 12.008 96.2322 11.656C95.9122 11.288 95.5282 11.008 95.0802 10.816C94.6322 10.608 94.1362 10.504 93.5922 10.504C93.0002 10.504 92.4562 10.648 91.9602 10.936C91.4642 11.224 91.0642 11.624 90.7602 12.136C90.4722 12.648 90.3282 13.248 90.3282 13.936C90.3282 14.576 90.4802 15.16 90.7842 15.688C91.0882 16.216 91.4962 16.632 92.0082 16.936C92.5202 17.24 93.0722 17.392 93.6642 17.392ZM105.783 19.192C105.079 19.192 104.391 19.072 103.719 18.832C103.063 18.576 102.519 18.2 102.087 17.704L103.023 16.408C103.439 16.808 103.863 17.112 104.295 17.32C104.743 17.512 105.183 17.608 105.615 17.608C105.935 17.608 106.231 17.568 106.503 17.488C106.775 17.408 106.991 17.28 107.151 17.104C107.327 16.912 107.415 16.656 107.415 16.336C107.415 15.984 107.295 15.704 107.055 15.496C106.831 15.288 106.535 15.12 106.167 14.992C105.815 14.864 105.439 14.744 105.039 14.632C104.223 14.36 103.599 13.984 103.167 13.504C102.735 13.024 102.519 12.44 102.519 11.752C102.519 11.224 102.647 10.736 102.903 10.288C103.175 9.824 103.567 9.448 104.079 9.16C104.607 8.872 105.255 8.728 106.023 8.728C106.711 8.728 107.327 8.816 107.871 8.992C108.415 9.152 108.927 9.424 109.407 9.808L108.519 11.2C108.231 10.896 107.887 10.672 107.487 10.528C107.087 10.384 106.727 10.304 106.407 10.288C106.135 10.272 105.871 10.312 105.615 10.408C105.375 10.504 105.175 10.64 105.015 10.816C104.855 10.992 104.775 11.2 104.775 11.44C104.775 11.776 104.887 12.048 105.111 12.256C105.335 12.464 105.623 12.632 105.975 12.76C106.343 12.872 106.703 12.992 107.055 13.12C107.551 13.264 107.991 13.456 108.375 13.696C108.759 13.936 109.063 14.232 109.287 14.584C109.527 14.936 109.647 15.376 109.647 15.904C109.647 16.496 109.503 17.048 109.215 17.56C108.943 18.056 108.519 18.456 107.943 18.76C107.383 19.048 106.663 19.192 105.783 19.192ZM112.772 19V0.423999H114.956V11.368L114.908 10.96C115.244 10.304 115.756 9.76 116.444 9.328C117.148 8.896 117.972 8.68 118.916 8.68C119.86 8.68 120.628 8.96 121.22 9.52C121.828 10.064 122.14 10.776 122.156 11.656V19H119.9V12.448C119.884 11.904 119.724 11.464 119.42 11.128C119.132 10.776 118.676 10.6 118.052 10.6C117.476 10.6 116.956 10.768 116.492 11.104C116.028 11.424 115.66 11.864 115.388 12.424C115.132 12.984 115.004 13.624 115.004 14.344V19H112.772ZM126.038 9.064H128.27V19H126.038V9.064ZM125.87 5.464C125.87 5.112 126.006 4.816 126.278 4.576C126.566 4.336 126.878 4.216 127.214 4.216C127.55 4.216 127.846 4.336 128.102 4.576C128.374 4.816 128.51 5.112 128.51 5.464C128.51 5.832 128.374 6.136 128.102 6.376C127.846 6.6 127.55 6.712 127.214 6.712C126.878 6.712 126.566 6.592 126.278 6.352C126.006 6.112 125.87 5.816 125.87 5.464ZM140.196 18.088C139.748 18.44 139.212 18.72 138.588 18.928C137.964 19.136 137.34 19.24 136.716 19.24C135.628 19.24 134.676 19.024 133.86 18.592C133.044 18.16 132.404 17.56 131.94 16.792C131.492 16.008 131.268 15.088 131.268 14.032C131.268 12.976 131.508 12.056 131.988 11.272C132.484 10.488 133.124 9.888 133.908 9.472C134.708 9.04 135.564 8.824 136.476 8.824C137.276 8.824 137.988 8.936 138.612 9.16C139.252 9.384 139.796 9.688 140.244 10.072L139.14 11.512C138.852 11.288 138.5 11.088 138.084 10.912C137.668 10.736 137.196 10.648 136.668 10.648C136.092 10.648 135.556 10.8 135.06 11.104C134.58 11.392 134.196 11.792 133.908 12.304C133.636 12.816 133.5 13.392 133.5 14.032C133.5 14.64 133.644 15.208 133.932 15.736C134.22 16.248 134.62 16.656 135.132 16.96C135.644 17.248 136.228 17.392 136.884 17.392C137.316 17.392 137.708 17.328 138.06 17.2C138.428 17.072 138.756 16.896 139.044 16.672L140.196 18.088Z" fill="white"/>
<path d="M69.8236 28.744C69.2316 28.44 68.5836 28.176 67.8796 27.952C67.1756 27.728 66.4876 27.616 65.8156 27.616C64.8876 27.616 64.1436 27.832 63.5836 28.264C63.0396 28.696 62.7676 29.272 62.7676 29.992C62.7676 30.536 62.9436 31 63.2956 31.384C63.6476 31.752 64.1116 32.072 64.6876 32.344C65.2636 32.616 65.8636 32.872 66.4876 33.112C67.0316 33.32 67.5676 33.552 68.0956 33.808C68.6236 34.064 69.0956 34.384 69.5116 34.768C69.9436 35.152 70.2796 35.624 70.5196 36.184C70.7756 36.744 70.9036 37.44 70.9036 38.272C70.9036 39.184 70.6716 40.016 70.2076 40.768C69.7596 41.52 69.1116 42.112 68.2636 42.544C67.4156 42.976 66.4076 43.192 65.2396 43.192C64.4716 43.192 63.7356 43.104 63.0316 42.928C62.3436 42.752 61.7036 42.528 61.1116 42.256C60.5196 41.968 59.9916 41.672 59.5276 41.368L60.5596 39.544C60.9436 39.816 61.3836 40.08 61.8796 40.336C62.3756 40.576 62.8956 40.776 63.4396 40.936C63.9836 41.08 64.5116 41.152 65.0236 41.152C65.5676 41.152 66.1036 41.056 66.6316 40.864C67.1756 40.656 67.6236 40.344 67.9756 39.928C68.3276 39.512 68.5036 38.96 68.5036 38.272C68.5036 37.68 68.3436 37.192 68.0236 36.808C67.7196 36.408 67.3116 36.072 66.7996 35.8C66.2876 35.512 65.7436 35.256 65.1676 35.032C64.6236 34.824 64.0716 34.6 63.5116 34.36C62.9516 34.104 62.4316 33.8 61.9516 33.448C61.4716 33.08 61.0876 32.632 60.7996 32.104C60.5116 31.576 60.3676 30.936 60.3676 30.184C60.3676 29.272 60.5836 28.48 61.0156 27.808C61.4636 27.12 62.0716 26.584 62.8396 26.2C63.6076 25.8 64.4876 25.584 65.4796 25.552C66.5996 25.552 67.5836 25.688 68.4316 25.96C69.2956 26.232 70.0556 26.56 70.7116 26.944L69.8236 28.744ZM74.2643 43V24.424H76.4483V35.368L76.4003 34.96C76.7363 34.304 77.2483 33.76 77.9363 33.328C78.6403 32.896 79.4643 32.68 80.4083 32.68C81.3523 32.68 82.1203 32.96 82.7123 33.52C83.3203 34.064 83.6323 34.776 83.6483 35.656V43H81.3923V36.448C81.3763 35.904 81.2163 35.464 80.9123 35.128C80.6243 34.776 80.1683 34.6 79.5443 34.6C78.9683 34.6 78.4483 34.768 77.9843 35.104C77.5203 35.424 77.1523 35.864 76.8803 36.424C76.6243 36.984 76.4963 37.624 76.4963 38.344V43H74.2643ZM91.6579 43.24C90.7299 43.24 89.8819 43.04 89.1139 42.64C88.3619 42.24 87.7619 41.656 87.3139 40.888C86.8819 40.104 86.6659 39.152 86.6659 38.032C86.6659 36.928 86.8979 35.976 87.3619 35.176C87.8259 34.36 88.4419 33.736 89.2099 33.304C89.9939 32.872 90.8499 32.656 91.7779 32.656C92.7059 32.656 93.4899 32.872 94.1299 33.304C94.7699 33.72 95.2579 34.216 95.5939 34.792L95.4499 35.176L95.6659 33.064H97.7299V43H95.4979V40.408L95.7379 40.984C95.6739 41.144 95.5299 41.352 95.3059 41.608C95.0979 41.848 94.8099 42.096 94.4419 42.352C94.0899 42.608 93.6819 42.824 93.2179 43C92.7539 43.16 92.2339 43.24 91.6579 43.24ZM92.2579 41.392C92.8179 41.392 93.3219 41.288 93.7699 41.08C94.2179 40.872 94.5859 40.584 94.8739 40.216C95.1779 39.832 95.3859 39.376 95.4979 38.848V36.904C95.3699 36.424 95.1459 36.008 94.8259 35.656C94.5059 35.288 94.1219 35.008 93.6739 34.816C93.2259 34.608 92.7299 34.504 92.1859 34.504C91.5939 34.504 91.0499 34.648 90.5539 34.936C90.0579 35.224 89.6579 35.624 89.3539 36.136C89.0659 36.648 88.9219 37.248 88.9219 37.936C88.9219 38.576 89.0739 39.16 89.3779 39.688C89.6819 40.216 90.0899 40.632 90.6019 40.936C91.1139 41.24 91.6659 41.392 92.2579 41.392ZM105.624 43.24C104.712 43.24 103.88 43.024 103.128 42.592C102.392 42.144 101.808 41.52 101.376 40.72C100.944 39.904 100.728 38.968 100.728 37.912C100.728 36.808 100.952 35.864 101.4 35.08C101.864 34.296 102.488 33.696 103.272 33.28C104.056 32.864 104.936 32.656 105.912 32.656C106.696 32.656 107.44 32.824 108.144 33.16C108.864 33.496 109.424 33.96 109.824 34.552L109.728 35.344V24.424H111.936V43H109.704V40.528L109.944 41.152C109.48 41.76 108.88 42.264 108.144 42.664C107.408 43.048 106.568 43.24 105.624 43.24ZM106.32 41.344C106.912 41.344 107.44 41.24 107.904 41.032C108.368 40.808 108.752 40.504 109.056 40.12C109.36 39.736 109.576 39.28 109.704 38.752V36.88C109.576 36.4 109.344 35.984 109.008 35.632C108.688 35.264 108.296 34.976 107.832 34.768C107.384 34.544 106.88 34.432 106.32 34.432C105.712 34.432 105.152 34.584 104.64 34.888C104.144 35.176 103.744 35.576 103.44 36.088C103.136 36.6 102.984 37.192 102.984 37.864C102.984 38.52 103.136 39.112 103.44 39.64C103.744 40.152 104.152 40.568 104.664 40.888C105.176 41.192 105.728 41.344 106.32 41.344ZM120.427 43.24C119.291 43.24 118.315 43.016 117.499 42.568C116.683 42.104 116.051 41.48 115.603 40.696C115.171 39.896 114.955 38.984 114.955 37.96C114.955 36.984 115.203 36.096 115.699 35.296C116.195 34.496 116.859 33.856 117.691 33.376C118.523 32.896 119.451 32.656 120.475 32.656C121.787 32.656 122.875 33.04 123.739 33.808C124.603 34.576 125.187 35.632 125.491 36.976L117.307 39.856L116.779 38.536L123.499 36.088L123.019 36.4C122.827 35.872 122.507 35.416 122.059 35.032C121.611 34.632 121.027 34.432 120.307 34.432C119.699 34.432 119.155 34.584 118.675 34.888C118.195 35.176 117.819 35.576 117.547 36.088C117.275 36.6 117.139 37.184 117.139 37.84C117.139 38.528 117.283 39.136 117.571 39.664C117.859 40.176 118.251 40.584 118.747 40.888C119.259 41.176 119.835 41.32 120.475 41.32C120.907 41.32 121.323 41.24 121.723 41.08C122.139 40.92 122.523 40.712 122.875 40.456L123.907 42.112C123.411 42.448 122.851 42.72 122.227 42.928C121.619 43.136 121.019 43.24 120.427 43.24ZM131.072 43.192C130.368 43.192 129.68 43.072 129.008 42.832C128.352 42.576 127.808 42.2 127.376 41.704L128.312 40.408C128.728 40.808 129.152 41.112 129.584 41.32C130.032 41.512 130.472 41.608 130.904 41.608C131.224 41.608 131.52 41.568 131.792 41.488C132.064 41.408 132.28 41.28 132.44 41.104C132.616 40.912 132.704 40.656 132.704 40.336C132.704 39.984 132.584 39.704 132.344 39.496C132.12 39.288 131.824 39.12 131.456 38.992C131.104 38.864 130.728 38.744 130.328 38.632C129.512 38.36 128.888 37.984 128.456 37.504C128.024 37.024 127.808 36.44 127.808 35.752C127.808 35.224 127.936 34.736 128.192 34.288C128.464 33.824 128.856 33.448 129.368 33.16C129.896 32.872 130.544 32.728 131.312 32.728C132 32.728 132.616 32.816 133.16 32.992C133.704 33.152 134.216 33.424 134.696 33.808L133.808 35.2C133.52 34.896 133.176 34.672 132.776 34.528C132.376 34.384 132.016 34.304 131.696 34.288C131.424 34.272 131.16 34.312 130.904 34.408C130.664 34.504 130.464 34.64 130.304 34.816C130.144 34.992 130.064 35.2 130.064 35.44C130.064 35.776 130.176 36.048 130.4 36.256C130.624 36.464 130.912 36.632 131.264 36.76C131.632 36.872 131.992 36.992 132.344 37.12C132.84 37.264 133.28 37.456 133.664 37.696C134.048 37.936 134.352 38.232 134.576 38.584C134.816 38.936 134.936 39.376 134.936 39.904C134.936 40.496 134.792 41.048 134.504 41.56C134.232 42.056 133.808 42.456 133.232 42.76C132.672 43.048 131.952 43.192 131.072 43.192Z" fill="white"/>
<defs>
<clipPath id="clip0_166_552">
<rect width="50.3519" height="49.6133" fill="white" transform="translate(0 0.193298)"/>
</clipPath>
</defs>
</svg>
