<svg width="166" height="24" viewBox="0 0 166 24" fill="none" xmlns="http://www.w3.org/2000/svg">
<g clip-path="url(#clip0_166_1143)">
<path d="M7.04614 5.42799C5.67779 6.93261 4.34919 8.46561 3.12279 10.1122C2.5834 10.8503 1.98723 11.6736 1.73173 12.4968C1.67496 12.7523 1.73173 12.6388 1.61818 12.5252C1.58979 12.4968 1.53301 12.4401 1.50462 12.4401C1.98999 12.4227 2.46934 12.3268 2.92407 12.1562C6.72819 10.7083 10.2768 8.55077 13.8822 6.64872C16.352 5.34283 18.7367 3.98016 21.4053 3.04332C22.1718 2.81621 23.3925 2.39038 23.9035 3.29882C24.0033 3.55174 24.0231 3.82918 23.9603 4.09371C23.7898 4.63777 23.5411 5.15417 23.2222 5.62672C22.4557 6.81905 21.604 7.89783 20.7807 9.005C20.3549 9.62955 17.2037 13.4904 19.049 13.5188C19.9858 13.5188 21.0362 13.093 22.0014 12.8943C22.3989 12.8375 22.7679 12.7239 23.1938 12.9511C25.1242 14.115 15.1029 22.6317 13.8822 23.824C15.8694 21.922 17.8566 19.9915 19.7303 17.9759C20.6722 16.9789 21.5539 15.9267 22.3705 14.8247C22.6653 14.443 22.8867 14.0098 23.0234 13.5472C23.1654 12.8659 21.462 13.5472 21.1498 13.6324C20.2413 13.8595 18.4528 14.6544 17.9702 13.4053C17.6295 12.0142 19.4748 9.74311 20.2129 8.57916C21.0078 7.44361 21.8311 6.33644 22.5124 5.20088C22.7679 4.77505 23.137 4.1221 23.1086 3.75305C22.6828 3.66788 22.2001 3.8666 21.7459 4.00855C20.4884 4.50458 19.265 5.08308 18.0838 5.74027C14.45 7.69911 10.9581 9.88505 7.29596 11.8723C5.56424 12.7523 3.77574 13.8595 1.73173 14.1434C1.0504 14.2286 0.170343 13.8311 0.0283987 13.0362C-0.113546 12.2413 0.227121 11.6168 0.51101 11.0206C0.849502 10.3727 1.22878 9.74684 1.64657 9.14694C2.04401 8.55077 2.46985 7.983 2.89568 7.44361C3.74735 6.33644 4.62741 5.25766 5.53585 4.20727C5.61257 4.09872 5.71076 4.00708 5.82434 3.93803C5.93792 3.86898 6.06447 3.82399 6.19615 3.80584C6.32782 3.78769 6.46183 3.79678 6.58985 3.83253C6.71787 3.86828 6.83719 3.92994 6.94042 4.01369C7.04364 4.09743 7.12856 4.20148 7.18993 4.31939C7.2513 4.4373 7.28781 4.56655 7.29719 4.69914C7.30657 4.83173 7.28862 4.96484 7.24446 5.09021C7.2003 5.21558 7.13087 5.33055 7.04046 5.42799H7.04614Z" fill="white"/>
<path d="M7.5488 3.26471L6.12936 4.00282C6.02174 4.05883 5.92953 4.1404 5.86081 4.24037C5.79209 4.34035 5.74897 4.45566 5.73523 4.5762C5.7215 4.69673 5.73757 4.81879 5.78203 4.93167C5.8265 5.04454 5.898 5.14476 5.99025 5.22355C6.08307 5.30193 6.19474 5.35475 6.31422 5.37678C6.4337 5.3988 6.55687 5.38928 6.67154 5.34914C6.78621 5.309 6.88843 5.23965 6.9681 5.14792C7.04777 5.05619 7.10213 4.94526 7.12581 4.8261L7.5488 3.26471Z" fill="black" stroke="white" stroke-width="0.502484" stroke-miterlimit="10"/>
<path d="M9.99821 2.07806C9.75946 1.96236 9.49698 1.90404 9.2317 1.90773C9.05789 1.90829 8.88531 1.93705 8.7207 1.99289C8.91336 1.59524 8.95376 1.1408 8.83426 0.715393C9.07301 0.83109 9.33548 0.889417 9.60076 0.885727C9.77458 0.885164 9.94715 0.856401 10.1118 0.80056C10.0233 0.999167 9.96399 1.20953 9.93575 1.42512C9.9128 1.64475 9.93404 1.86676 9.99821 2.07806Z" fill="black"/>
<path d="M9.03299 0.942526C9.21659 1.00059 9.40821 1.02934 9.60077 1.02769C9.69624 1.03101 9.79173 1.02146 9.88466 0.999304L9.79949 1.42514V1.85097C9.61589 1.7929 9.42427 1.76416 9.23171 1.76581C9.13624 1.76249 9.04075 1.77204 8.94782 1.79419C9.05986 1.52499 9.0895 1.22859 9.03299 0.942526ZM8.40843 0.176025C8.67847 0.498505 8.81129 0.91401 8.77838 1.33333C8.74547 1.75265 8.54946 2.14234 8.23242 2.41875C8.51564 2.17344 8.87981 2.04193 9.25442 2.04969C9.48275 2.05049 9.70807 2.10181 9.91421 2.19998C10.1204 2.29814 10.3022 2.44072 10.4468 2.61747C10.176 2.2957 10.0423 1.88063 10.0741 1.46134C10.1059 1.04204 10.3009 0.651941 10.6171 0.374748C10.3353 0.61874 9.97343 0.750156 9.60077 0.743804C9.37244 0.743007 9.14713 0.691684 8.94098 0.593519C8.73483 0.495355 8.55297 0.35278 8.40843 0.176025Z" fill="white"/>
</g>
<path d="M32.64 17L38.96 1.94H39.08L45.38 17H43.16L38.44 4.98L39.82 4.08L34.54 17H32.64ZM36.34 11.52H41.72L42.36 13.2H35.78L36.34 11.52ZM47.6434 17V1.52H49.5034V17H47.6434ZM51.5034 11.5L55.3034 17H53.1234L50.2634 12.54L51.5034 11.5ZM48.9234 14.36L48.7434 12.58L53.7634 8.54L54.9034 9.52L48.9234 14.36ZM60.9272 17.2C60.1539 17.2 59.4472 17.0333 58.8072 16.7C58.1805 16.3667 57.6805 15.88 57.3072 15.24C56.9472 14.5867 56.7672 13.7933 56.7672 12.86C56.7672 11.94 56.9605 11.1467 57.3472 10.48C57.7339 9.8 58.2472 9.28 58.8872 8.92C59.5405 8.56 60.2539 8.38 61.0272 8.38C61.8005 8.38 62.4539 8.56 62.9872 8.92C63.5205 9.26667 63.9272 9.68 64.2072 10.16L64.0872 10.48L64.2672 8.72H65.9872V17H64.1272V14.84L64.3272 15.32C64.2739 15.4533 64.1539 15.6267 63.9672 15.84C63.7939 16.04 63.5539 16.2467 63.2472 16.46C62.9539 16.6733 62.6139 16.8533 62.2272 17C61.8405 17.1333 61.4072 17.2 60.9272 17.2ZM61.4272 15.66C61.8939 15.66 62.3139 15.5733 62.6872 15.4C63.0605 15.2267 63.3672 14.9867 63.6072 14.68C63.8605 14.36 64.0339 13.98 64.1272 13.54V11.92C64.0205 11.52 63.8339 11.1733 63.5672 10.88C63.3005 10.5733 62.9805 10.34 62.6072 10.18C62.2339 10.0067 61.8205 9.92 61.3672 9.92C60.8739 9.92 60.4205 10.04 60.0072 10.28C59.5939 10.52 59.2605 10.8533 59.0072 11.28C58.7672 11.7067 58.6472 12.2067 58.6472 12.78C58.6472 13.3133 58.7739 13.8 59.0272 14.24C59.2805 14.68 59.6205 15.0267 60.0472 15.28C60.4739 15.5333 60.9339 15.66 61.4272 15.66ZM71.5259 17.16C70.9393 17.16 70.3659 17.06 69.8059 16.86C69.2593 16.6467 68.8059 16.3333 68.4459 15.92L69.2259 14.84C69.5726 15.1733 69.9259 15.4267 70.2859 15.6C70.6593 15.76 71.0259 15.84 71.3859 15.84C71.6526 15.84 71.8993 15.8067 72.1259 15.74C72.3526 15.6733 72.5326 15.5667 72.6659 15.42C72.8126 15.26 72.8859 15.0467 72.8859 14.78C72.8859 14.4867 72.7859 14.2533 72.5859 14.08C72.3993 13.9067 72.1526 13.7667 71.8459 13.66C71.5526 13.5533 71.2393 13.4533 70.9059 13.36C70.2259 13.1333 69.7059 12.82 69.3459 12.42C68.9859 12.02 68.8059 11.5333 68.8059 10.96C68.8059 10.52 68.9126 10.1133 69.1259 9.74C69.3526 9.35333 69.6793 9.04 70.1059 8.8C70.5459 8.56 71.0859 8.44 71.7259 8.44C72.2993 8.44 72.8126 8.51333 73.2659 8.66C73.7193 8.79333 74.1459 9.02 74.5459 9.34L73.8059 10.5C73.5659 10.2467 73.2793 10.06 72.9459 9.94C72.6126 9.82 72.3126 9.75333 72.0459 9.74C71.8193 9.72667 71.5993 9.76 71.3859 9.84C71.1859 9.92 71.0193 10.0333 70.8859 10.18C70.7526 10.3267 70.6859 10.5 70.6859 10.7C70.6859 10.98 70.7793 11.2067 70.9659 11.38C71.1526 11.5533 71.3926 11.6933 71.6859 11.8C71.9926 11.8933 72.2926 11.9933 72.5859 12.1C72.9993 12.22 73.3659 12.38 73.6859 12.58C74.0059 12.78 74.2593 13.0267 74.4459 13.32C74.6459 13.6133 74.7459 13.98 74.7459 14.42C74.7459 14.9133 74.6259 15.3733 74.3859 15.8C74.1593 16.2133 73.8059 16.5467 73.3259 16.8C72.8593 17.04 72.2593 17.16 71.5259 17.16ZM77.3505 17V1.52H79.1705V10.64L79.1305 10.3C79.4105 9.75333 79.8371 9.3 80.4105 8.94C80.9971 8.58 81.6838 8.4 82.4705 8.4C83.2571 8.4 83.8971 8.63333 84.3905 9.1C84.8971 9.55333 85.1571 10.1467 85.1705 10.88V17H83.2905V11.54C83.2771 11.0867 83.1438 10.72 82.8905 10.44C82.6505 10.1467 82.2705 10 81.7505 10C81.2705 10 80.8371 10.14 80.4505 10.42C80.0638 10.6867 79.7571 11.0533 79.5305 11.52C79.3171 11.9867 79.2105 12.52 79.2105 13.12V17H77.3505ZM88.4052 8.72H90.2652V17H88.4052V8.72ZM88.2652 5.72C88.2652 5.42667 88.3785 5.18 88.6052 4.98C88.8452 4.78 89.1052 4.68 89.3852 4.68C89.6652 4.68 89.9118 4.78 90.1252 4.98C90.3518 5.18 90.4652 5.42667 90.4652 5.72C90.4652 6.02667 90.3518 6.28 90.1252 6.48C89.9118 6.66667 89.6652 6.76 89.3852 6.76C89.1052 6.76 88.8452 6.66 88.6052 6.46C88.3785 6.26 88.2652 6.01333 88.2652 5.72ZM100.203 16.24C99.8299 16.5333 99.3833 16.7667 98.8633 16.94C98.3433 17.1133 97.8233 17.2 97.3033 17.2C96.3966 17.2 95.6033 17.02 94.9233 16.66C94.2433 16.3 93.7099 15.8 93.3233 15.16C92.9499 14.5067 92.7633 13.74 92.7633 12.86C92.7633 11.98 92.9633 11.2133 93.3633 10.56C93.7766 9.90667 94.3099 9.40667 94.9633 9.06C95.6299 8.7 96.3433 8.52 97.1033 8.52C97.7699 8.52 98.3633 8.61333 98.8833 8.8C99.4166 8.98667 99.8699 9.24 100.243 9.56L99.3233 10.76C99.0833 10.5733 98.7899 10.4067 98.4433 10.26C98.0966 10.1133 97.7033 10.04 97.2633 10.04C96.7833 10.04 96.3366 10.1667 95.9233 10.42C95.5233 10.66 95.2033 10.9933 94.9633 11.42C94.7366 11.8467 94.6233 12.3267 94.6233 12.86C94.6233 13.3667 94.7433 13.84 94.9833 14.28C95.2233 14.7067 95.5566 15.0467 95.9833 15.3C96.4099 15.54 96.8966 15.66 97.4433 15.66C97.8033 15.66 98.1299 15.6067 98.4233 15.5C98.7299 15.3933 99.0033 15.2467 99.2433 15.06L100.203 16.24Z" fill="white"/>
<path d="M110.56 5.12C110.067 4.86667 109.527 4.64667 108.94 4.46C108.353 4.27333 107.78 4.18 107.22 4.18C106.447 4.18 105.827 4.36 105.36 4.72C104.907 5.08 104.68 5.56 104.68 6.16C104.68 6.61333 104.827 7 105.12 7.32C105.413 7.62667 105.8 7.89333 106.28 8.12C106.76 8.34667 107.26 8.56 107.78 8.76C108.233 8.93333 108.68 9.12667 109.12 9.34C109.56 9.55333 109.953 9.82 110.3 10.14C110.66 10.46 110.94 10.8533 111.14 11.32C111.353 11.7867 111.46 12.3667 111.46 13.06C111.46 13.82 111.267 14.5133 110.88 15.14C110.507 15.7667 109.967 16.26 109.26 16.62C108.553 16.98 107.713 17.16 106.74 17.16C106.1 17.16 105.487 17.0867 104.9 16.94C104.327 16.7933 103.793 16.6067 103.3 16.38C102.807 16.14 102.367 15.8933 101.98 15.64L102.84 14.12C103.16 14.3467 103.527 14.5667 103.94 14.78C104.353 14.98 104.787 15.1467 105.24 15.28C105.693 15.4 106.133 15.46 106.56 15.46C107.013 15.46 107.46 15.38 107.9 15.22C108.353 15.0467 108.727 14.7867 109.02 14.44C109.313 14.0933 109.46 13.6333 109.46 13.06C109.46 12.5667 109.327 12.16 109.06 11.84C108.807 11.5067 108.467 11.2267 108.04 11C107.613 10.76 107.16 10.5467 106.68 10.36C106.227 10.1867 105.767 10 105.3 9.8C104.833 9.58667 104.4 9.33333 104 9.04C103.6 8.73333 103.28 8.36 103.04 7.92C102.8 7.48 102.68 6.94667 102.68 6.32C102.68 5.56 102.86 4.9 103.22 4.34C103.593 3.76667 104.1 3.32 104.74 3C105.38 2.66667 106.113 2.48667 106.94 2.46C107.873 2.46 108.693 2.57333 109.4 2.8C110.12 3.02667 110.753 3.3 111.3 3.62L110.56 5.12ZM114.261 17V1.52H116.081V10.64L116.041 10.3C116.321 9.75333 116.747 9.3 117.321 8.94C117.907 8.58 118.594 8.4 119.381 8.4C120.167 8.4 120.807 8.63333 121.301 9.1C121.807 9.55333 122.067 10.1467 122.081 10.88V17H120.201V11.54C120.187 11.0867 120.054 10.72 119.801 10.44C119.561 10.1467 119.181 10 118.661 10C118.181 10 117.747 10.14 117.361 10.42C116.974 10.6867 116.667 11.0533 116.441 11.52C116.227 11.9867 116.121 12.52 116.121 13.12V17H114.261ZM128.755 17.2C127.982 17.2 127.275 17.0333 126.635 16.7C126.009 16.3667 125.509 15.88 125.135 15.24C124.775 14.5867 124.595 13.7933 124.595 12.86C124.595 11.94 124.789 11.1467 125.175 10.48C125.562 9.8 126.075 9.28 126.715 8.92C127.369 8.56 128.082 8.38 128.855 8.38C129.629 8.38 130.282 8.56 130.815 8.92C131.349 9.26667 131.755 9.68 132.035 10.16L131.915 10.48L132.095 8.72H133.815V17H131.955V14.84L132.155 15.32C132.102 15.4533 131.982 15.6267 131.795 15.84C131.622 16.04 131.382 16.2467 131.075 16.46C130.782 16.6733 130.442 16.8533 130.055 17C129.669 17.1333 129.235 17.2 128.755 17.2ZM129.255 15.66C129.722 15.66 130.142 15.5733 130.515 15.4C130.889 15.2267 131.195 14.9867 131.435 14.68C131.689 14.36 131.862 13.98 131.955 13.54V11.92C131.849 11.52 131.662 11.1733 131.395 10.88C131.129 10.5733 130.809 10.34 130.435 10.18C130.062 10.0067 129.649 9.92 129.195 9.92C128.702 9.92 128.249 10.04 127.835 10.28C127.422 10.52 127.089 10.8533 126.835 11.28C126.595 11.7067 126.475 12.2067 126.475 12.78C126.475 13.3133 126.602 13.8 126.855 14.24C127.109 14.68 127.449 15.0267 127.875 15.28C128.302 15.5333 128.762 15.66 129.255 15.66ZM140.394 17.2C139.634 17.2 138.941 17.02 138.314 16.66C137.701 16.2867 137.214 15.7667 136.854 15.1C136.494 14.42 136.314 13.64 136.314 12.76C136.314 11.84 136.501 11.0533 136.874 10.4C137.261 9.74667 137.781 9.24667 138.434 8.9C139.087 8.55333 139.821 8.38 140.634 8.38C141.287 8.38 141.907 8.52 142.494 8.8C143.094 9.08 143.561 9.46667 143.894 9.96L143.814 10.62V1.52H145.654V17H143.794V14.94L143.994 15.46C143.607 15.9667 143.107 16.3867 142.494 16.72C141.881 17.04 141.181 17.2 140.394 17.2ZM140.974 15.62C141.467 15.62 141.907 15.5333 142.294 15.36C142.681 15.1733 143.001 14.92 143.254 14.6C143.507 14.28 143.687 13.9 143.794 13.46V11.9C143.687 11.5 143.494 11.1533 143.214 10.86C142.947 10.5533 142.621 10.3133 142.234 10.14C141.861 9.95333 141.441 9.86 140.974 9.86C140.467 9.86 140.001 9.98667 139.574 10.24C139.161 10.48 138.827 10.8133 138.574 11.24C138.321 11.6667 138.194 12.16 138.194 12.72C138.194 13.2667 138.321 13.76 138.574 14.2C138.827 14.6267 139.167 14.9733 139.594 15.24C140.021 15.4933 140.481 15.62 140.974 15.62ZM152.73 17.2C151.783 17.2 150.97 17.0133 150.29 16.64C149.61 16.2533 149.083 15.7333 148.71 15.08C148.35 14.4133 148.17 13.6533 148.17 12.8C148.17 11.9867 148.376 11.2467 148.79 10.58C149.203 9.91333 149.756 9.38 150.45 8.98C151.143 8.58 151.916 8.38 152.77 8.38C153.863 8.38 154.77 8.7 155.49 9.34C156.21 9.98 156.696 10.86 156.95 11.98L150.13 14.38L149.69 13.28L155.29 11.24L154.89 11.5C154.73 11.06 154.463 10.68 154.09 10.36C153.716 10.0267 153.23 9.86 152.63 9.86C152.123 9.86 151.67 9.98667 151.27 10.24C150.87 10.48 150.556 10.8133 150.33 11.24C150.103 11.6667 149.99 12.1533 149.99 12.7C149.99 13.2733 150.11 13.78 150.35 14.22C150.59 14.6467 150.916 14.9867 151.33 15.24C151.756 15.48 152.236 15.6 152.77 15.6C153.13 15.6 153.476 15.5333 153.81 15.4C154.156 15.2667 154.476 15.0933 154.77 14.88L155.63 16.26C155.216 16.54 154.75 16.7667 154.23 16.94C153.723 17.1133 153.223 17.2 152.73 17.2ZM161.6 17.16C161.013 17.16 160.44 17.06 159.88 16.86C159.333 16.6467 158.88 16.3333 158.52 15.92L159.3 14.84C159.647 15.1733 160 15.4267 160.36 15.6C160.733 15.76 161.1 15.84 161.46 15.84C161.727 15.84 161.973 15.8067 162.2 15.74C162.427 15.6733 162.607 15.5667 162.74 15.42C162.887 15.26 162.96 15.0467 162.96 14.78C162.96 14.4867 162.86 14.2533 162.66 14.08C162.473 13.9067 162.227 13.7667 161.92 13.66C161.627 13.5533 161.313 13.4533 160.98 13.36C160.3 13.1333 159.78 12.82 159.42 12.42C159.06 12.02 158.88 11.5333 158.88 10.96C158.88 10.52 158.987 10.1133 159.2 9.74C159.427 9.35333 159.753 9.04 160.18 8.8C160.62 8.56 161.16 8.44 161.8 8.44C162.373 8.44 162.887 8.51333 163.34 8.66C163.793 8.79333 164.22 9.02 164.62 9.34L163.88 10.5C163.64 10.2467 163.353 10.06 163.02 9.94C162.687 9.82 162.387 9.75333 162.12 9.74C161.893 9.72667 161.673 9.76 161.46 9.84C161.26 9.92 161.093 10.0333 160.96 10.18C160.827 10.3267 160.76 10.5 160.76 10.7C160.76 10.98 160.853 11.2067 161.04 11.38C161.227 11.5533 161.467 11.6933 161.76 11.8C162.067 11.8933 162.367 11.9933 162.66 12.1C163.073 12.22 163.44 12.38 163.76 12.58C164.08 12.78 164.333 13.0267 164.52 13.32C164.72 13.6133 164.82 13.98 164.82 14.42C164.82 14.9133 164.7 15.3733 164.46 15.8C164.233 16.2133 163.88 16.5467 163.4 16.8C162.933 17.04 162.333 17.16 161.6 17.16Z" fill="white"/>
<defs>
<clipPath id="clip0_166_1143">
<rect width="24" height="23.648" fill="white" transform="translate(0 0.176025)"/>
</clipPath>
</defs>
</svg>
