<svg width="108" height="108" viewBox="0 0 108 108" fill="none" xmlns="http://www.w3.org/2000/svg">
<rect width="108" height="108" rx="20" fill="white"/>
<path d="M91.5006 34.5009H65.2509V27.001H91.5006V34.5009ZM97.973 72.0005C96.3155 76.8642 90.3643 83.2504 78.8445 83.2504C67.3171 83.2504 57.9797 76.7667 57.9797 61.9693C57.9797 47.307 66.6983 39.7696 78.477 39.7696C90.0343 39.7696 97.0918 46.452 98.633 56.3669C98.9255 58.2644 99.0417 60.8219 98.9892 64.3918H68.8883C69.3758 76.4329 81.9494 76.8117 86.0931 72.0005H97.973ZM69.1508 57.0007H87.7694C87.3756 51.1995 83.5094 48.6795 78.4807 48.6795C72.9833 48.6795 69.9421 51.5595 69.1508 57.0007ZM33.2487 83.2054H9.00146V27.0797H35.0749C55.6097 27.3835 55.9997 47.4945 45.2748 52.9769C58.2534 57.7019 58.6884 83.2054 33.2487 83.2054V83.2054ZM20.2513 49.5007H33.6912C43.0961 49.5007 44.5886 38.2509 32.5212 38.2509H20.2513V49.5007V49.5007ZM32.9675 60.7506H20.2513V72.0605H32.78C44.2361 72.0605 43.5348 60.7506 32.9675 60.7506V60.7506Z" fill="black"/>
</svg>
